<svg width="24" height="24" viewBox="0 0 24 24" fill="none" xmlns="http://www.w3.org/2000/svg">
<path d="M21.6 6.06C20.88 6.36 20.16 6.6 19.32 6.66C20.16 6.18 20.76 5.4 21.06 4.5C20.28 4.98 19.44 5.28 18.54 5.46C17.82 4.68 16.8 4.2 15.72 4.2C13.56 4.2 11.76 5.94 11.76 8.16C11.76 8.46 11.82 8.76 11.88 9.06C8.58 8.88 5.7 7.32 3.72 4.92C3.36 5.52 3.18 6.18 3.18 6.9C3.18 8.28 3.9 9.48 4.92 10.2C4.26 10.2 3.66 10.02 3.12 9.72V9.78C3.12 11.7 4.5 13.26 6.3 13.62C5.94 13.68 5.64 13.74 5.28 13.74C5.04 13.74 4.8 13.74 4.56 13.68C5.04 15.24 6.54 16.38 8.22 16.44C6.9 17.52 5.16 18.12 3.3 18.12C3 18.12 2.64 18.12 2.34 18.06C4.14 19.14 6.24 19.8 8.46 19.8C15.72 19.8 19.68 13.8 19.68 8.58C19.68 8.4 19.68 8.22 19.68 8.1C20.4 7.5 21.06 6.84 21.6 6.06Z" fill="#2EBAE8"/>
</svg>
