<svg width="24" height="24" viewBox="0 0 24 24" fill="none" xmlns="http://www.w3.org/2000/svg">
<path d="M21.42 8.16C21.42 8.16 21.24 6.84 20.64 6.24C19.92 5.46 19.08 5.46 18.72 5.4C16.02 5.22 12 5.22 12 5.22C12 5.22 7.98 5.22 5.28 5.4C4.92 5.46 4.08 5.46 3.36 6.24C2.76 6.84 2.58 8.16 2.58 8.16C2.58 8.16 2.4 9.72 2.4 11.28L2.4 12.72C2.4 14.28 2.58 15.84 2.58 15.84C2.58 15.84 2.76 17.16 3.36 17.76C4.08 18.54 5.04 18.48 5.46 18.6C7.02 18.72 12 18.78 12 18.78C12 18.78 16.02 18.78 18.72 18.6C19.08 18.54 19.92 18.54 20.64 17.76C21.24 17.16 21.42 15.84 21.42 15.84C21.42 15.84 21.6 14.28 21.6 12.72L21.6 11.28C21.6 9.72 21.42 8.16 21.42 8.16ZM10.02 14.52L10.02 9.12L15.18 11.82L10.02 14.52Z" fill="#E82E2E"/>
</svg>
