<svg width="24" height="24" viewBox="0 0 24 24" fill="none" xmlns="http://www.w3.org/2000/svg">
<path d="M21.6 12C21.5997 10.1655 21.0738 8.36941 20.0845 6.82448C19.0951 5.27956 17.6839 4.05045 16.0177 3.28267C14.3515 2.5149 12.5003 2.24061 10.6831 2.49227C8.86588 2.74393 7.15884 3.51101 5.76404 4.70269C4.36925 5.89437 3.34512 7.46075 2.81288 9.21639C2.28065 10.972 2.26261 12.8434 2.7609 14.609C3.25919 16.3746 4.25293 17.9604 5.62449 19.1788C6.99605 20.3971 8.68799 21.197 10.5 21.4836L10.5 14.775H8.0628V12H10.5V9.885C10.5 7.479 11.9334 6.15 14.1258 6.15C14.8458 6.15999 15.5641 6.22255 16.275 6.3372V8.7H15.0642C14.8579 8.6726 14.648 8.69198 14.4502 8.7567C14.2524 8.82142 14.0717 8.92983 13.9214 9.07389C13.7712 9.21796 13.6553 9.39398 13.5824 9.58891C13.5094 9.78385 13.4813 9.9927 13.5 10.2V12H16.1628L15.7368 14.775H13.5L13.5 21.4836C15.7583 21.1264 17.8149 19.9749 19.2998 18.2363C20.7847 16.4978 21.6004 14.2864 21.6 12Z" fill="#2E6FE8"/>
</svg>
